HIERARCHY
ROOT Hips
{
	OFFSET 0.000000 71.427986 0.000000
	CHANNELS 6 Xposition Yposition Zposition Xrotation Yrotation Zrotation
	JOINT Pelvis
	{
		OFFSET 0.000000 0.000000 0.000000
		CHANNELS 3 Xrotation Yrotation Zrotation
		JOINT LeftUpLeg
		{
			OFFSET 6.797100 -2.508499 -1.318700
			CHANNELS 3 Xrotation Yrotation Zrotation
			JOINT LeftLeg
			{
				OFFSET 0.069008 -29.241863 0.690200
				CHANNELS 3 Xrotation Yrotation Zrotation
				JOINT LeftFoot
				{
					OFFSET -0.069008 -29.568123 -0.266800
					CHANNELS 3 Xrotation Yrotation Zrotation
					JOINT LeftToeBase
					{
						OFFSET 3.145500 -8.631000 16.059900
						CHANNELS 3 Xrotation Yrotation Zrotation
						End Site
						{
							OFFSET 0.000000 18.501587 0.000000
						}
					}
				}
			}
			JOINT Left_ShortSleeve
			{
				OFFSET 0.265923 -10.480953 1.153800
				CHANNELS 3 Xrotation Yrotation Zrotation
				End Site
				{
					OFFSET 1.725763 19.823879 0.000000
				}
			}
		}
		JOINT RightUpLeg
		{
			OFFSET -6.797100 -2.508499 -1.318700
			CHANNELS 3 Xrotation Yrotation Zrotation
			JOINT RightLeg
			{
				OFFSET -0.082453 -29.241932 0.688000
				CHANNELS 3 Xrotation Yrotation Zrotation
				JOINT RightFoot
				{
					OFFSET 0.082453 -29.568058 -0.264600
					CHANNELS 3 Xrotation Yrotation Zrotation
					JOINT RightToeBase
					{
						OFFSET -3.115300 -8.682800 16.113400
						CHANNELS 3 Xrotation Yrotation Zrotation
						End Site
						{
							OFFSET 0.000000 18.567114 0.000000
						}
					}
				}
			}
			JOINT Right_ShortSleeve
			{
				OFFSET -0.265923 -10.480953 1.153800
				CHANNELS 3 Xrotation Yrotation Zrotation
				End Site
				{
					OFFSET -1.725766 19.823910 0.000000
				}
			}
		}
	}
	JOINT Spine
	{
		OFFSET 0.000000 13.368103 0.470500
		CHANNELS 3 Xrotation Yrotation Zrotation
		JOINT Spine1
		{
			OFFSET 0.147000 13.837402 0.538800
			CHANNELS 3 Xrotation Yrotation Zrotation
			JOINT Spine2
			{
				OFFSET 0.168000 16.242897 -1.435500
				CHANNELS 3 Xrotation Yrotation Zrotation
				JOINT Neck
				{
					OFFSET 0.217200 18.631500 -1.679100
					CHANNELS 3 Xrotation Yrotation Zrotation
					JOINT Head
					{
						OFFSET 0.000000 6.599396 1.385900
						CHANNELS 3 Xrotation Yrotation Zrotation
						JOINT Hat
						{
							OFFSET -0.532200 27.220596 -10.096100
							CHANNELS 3 Xrotation Yrotation Zrotation
							End Site
							{
								OFFSET 0.000000 22.029861 0.000000
							}
						}
						JOINT HairD
						{
							OFFSET -10.777400 17.437393 -1.325900
							CHANNELS 3 Xrotation Yrotation Zrotation
							JOINT HairD1
							{
								OFFSET -3.290299 -11.051193 1.062200
								CHANNELS 3 Xrotation Yrotation Zrotation
								End Site
								{
									OFFSET 0.000000 11.579437 0.000000
								}
							}
						}
						JOINT HairB
						{
							OFFSET -10.777400 17.437393 1.467900
							CHANNELS 3 Xrotation Yrotation Zrotation
							JOINT HairB1
							{
								OFFSET -1.561200 -12.956299 3.590200
								CHANNELS 3 Xrotation Yrotation Zrotation
								End Site
								{
									OFFSET 0.000000 13.534866 0.000000
								}
							}
						}
						JOINT HairA
						{
							OFFSET 9.713100 17.437393 1.467900
							CHANNELS 3 Xrotation Yrotation Zrotation
							JOINT HairA1
							{
								OFFSET 1.561200 -12.956299 3.590200
								CHANNELS 3 Xrotation Yrotation Zrotation
								End Site
								{
									OFFSET 0.000000 13.534866 0.000000
								}
							}
						}
						JOINT HairC
						{
							OFFSET 9.713100 17.437393 -1.325900
							CHANNELS 3 Xrotation Yrotation Zrotation
							JOINT HairC1
							{
								OFFSET 3.290300 -11.051193 1.062200
								CHANNELS 3 Xrotation Yrotation Zrotation
								End Site
								{
									OFFSET 0.000000 11.579437 0.000000
								}
							}
						}
					}
				}
				JOINT LeftShoulder
				{
					OFFSET 5.101800 15.108002 -2.763700
					CHANNELS 3 Xrotation Yrotation Zrotation
					JOINT LeftArm
					{
						OFFSET 9.825497 2.506317 -1.597400
						CHANNELS 3 Xrotation Yrotation Zrotation
						JOINT LeftForeArm
						{
							OFFSET 21.966244 0.000000 0.000000
							CHANNELS 3 Xrotation Yrotation Zrotation
							JOINT LeftHand
							{
								OFFSET 33.879036 0.000000 0.000000
								CHANNELS 3 Xrotation Yrotation Zrotation
								JOINT LeftHandThumb1
								{
									OFFSET 6.715286 -2.359680 3.363841
									CHANNELS 3 Xrotation Yrotation Zrotation
									JOINT LeftHandThumb2
									{
										OFFSET 2.507072 -1.447464 1.447461
										CHANNELS 3 Xrotation Yrotation Zrotation
										JOINT LeftHandThumb3
										{
											OFFSET 2.898338 -1.673355 1.673357
											CHANNELS 3 Xrotation Yrotation Zrotation
											End Site
											{
												OFFSET -0.295959 3.727692 -0.131651
											}
										}
									}
								}
								JOINT LeftHandIndex1
								{
									OFFSET 14.190811 -0.254547 3.840278
									CHANNELS 3 Xrotation Yrotation Zrotation
									JOINT LeftHandIndex2
									{
										OFFSET 3.551727 0.000000 -0.000000
										CHANNELS 3 Xrotation Yrotation Zrotation
										JOINT LeftHandIndex3
										{
											OFFSET 2.894196 0.000000 0.000000
											CHANNELS 3 Xrotation Yrotation Zrotation
											End Site
											{
												OFFSET -1.000603 2.690872 0.366626
											}
										}
									}
								}
								JOINT LeftHandMiddle1
								{
									OFFSET 13.776489 0.000000 0.000000
									CHANNELS 3 Xrotation Yrotation Zrotation
									JOINT LeftHandMiddle2
									{
										OFFSET 3.438232 0.000000 0.000000
										CHANNELS 3 Xrotation Yrotation Zrotation
										JOINT LeftHandMiddle3
										{
											OFFSET 3.691551 0.000000 0.000000
											CHANNELS 3 Xrotation Yrotation Zrotation
											End Site
											{
												OFFSET -1.082298 3.499527 0.457670
											}
										}
									}
								}
								JOINT LeftHandRing1
								{
									OFFSET 13.966164 -0.268127 -3.067488
									CHANNELS 3 Xrotation Yrotation Zrotation
									JOINT LeftHandRing2
									{
										OFFSET 3.162567 0.000000 0.000000
										CHANNELS 3 Xrotation Yrotation Zrotation
										JOINT LeftHandRing3
										{
											OFFSET 3.324348 0.000000 0.000000
											CHANNELS 3 Xrotation Yrotation Zrotation
											End Site
											{
												OFFSET -0.861900 3.184998 0.405154
											}
										}
									}
								}
								JOINT LeftHandPinky1
								{
									OFFSET 13.131393 -0.168503 -5.746925
									CHANNELS 3 Xrotation Yrotation Zrotation
									JOINT LeftHandPinky2
									{
										OFFSET 2.849182 0.000000 0.000000
										CHANNELS 3 Xrotation Yrotation Zrotation
										JOINT LeftHandPinky3
										{
											OFFSET 2.805038 0.000000 0.000000
											CHANNELS 3 Xrotation Yrotation Zrotation
											End Site
											{
												OFFSET -0.882500 2.642609 0.325652
											}
										}
									}
								}
							}
							JOINT Left_Sleeve
							{
								OFFSET 6.592125 -0.646545 0.805568
								CHANNELS 3 Xrotation Yrotation Zrotation
								End Site
								{
									OFFSET -0.000179 20.275787 -0.000000
								}
							}
						}
					}
				}
				JOINT RightShoulder
				{
					OFFSET -5.731700 15.108002 -2.763700
					CHANNELS 3 Xrotation Yrotation Zrotation
					JOINT RightArm
					{
						OFFSET -9.825497 2.506317 -1.597400
						CHANNELS 3 Xrotation Yrotation Zrotation
						JOINT RightForeArm
						{
							OFFSET -21.966242 0.000000 0.000000
							CHANNELS 3 Xrotation Yrotation Zrotation
							JOINT RightHand
							{
								OFFSET -33.879032 0.000000 0.000000
								CHANNELS 3 Xrotation Yrotation Zrotation
								JOINT RightHandThumb1
								{
									OFFSET -6.715286 -2.359680 3.363841
									CHANNELS 3 Xrotation Yrotation Zrotation
									JOINT RightHandThumb2
									{
										OFFSET -2.507072 -1.447464 1.447461
										CHANNELS 3 Xrotation Yrotation Zrotation
										JOINT RightHandThumb3
										{
											OFFSET -2.898338 -1.673355 1.673357
											CHANNELS 3 Xrotation Yrotation Zrotation
											End Site
											{
												OFFSET 0.295959 3.727692 -0.131651
											}
										}
									}
								}
								JOINT RightHandIndex1
								{
									OFFSET -14.190811 -0.254547 3.840278
									CHANNELS 3 Xrotation Yrotation Zrotation
									JOINT RightHandIndex2
									{
										OFFSET -3.551727 0.000000 -0.000000
										CHANNELS 3 Xrotation Yrotation Zrotation
										JOINT RightHandIndex3
										{
											OFFSET -2.894196 0.000000 0.000000
											CHANNELS 3 Xrotation Yrotation Zrotation
											End Site
											{
												OFFSET 1.000603 2.690872 0.366626
											}
										}
									}
								}
								JOINT RightHandMiddle1
								{
									OFFSET -13.776489 0.000000 0.000000
									CHANNELS 3 Xrotation Yrotation Zrotation
									JOINT RightHandMiddle2
									{
										OFFSET -3.438232 0.000000 0.000000
										CHANNELS 3 Xrotation Yrotation Zrotation
										JOINT RightHandMiddle3
										{
											OFFSET -3.691551 0.000000 0.000000
											CHANNELS 3 Xrotation Yrotation Zrotation
											End Site
											{
												OFFSET 1.082298 3.499527 0.457670
											}
										}
									}
								}
								JOINT RightHandRing1
								{
									OFFSET -13.966164 -0.268127 -3.067488
									CHANNELS 3 Xrotation Yrotation Zrotation
									JOINT RightHandRing2
									{
										OFFSET -3.162567 0.000000 0.000000
										CHANNELS 3 Xrotation Yrotation Zrotation
										JOINT RightHandRing3
										{
											OFFSET -3.324348 0.000000 0.000000
											CHANNELS 3 Xrotation Yrotation Zrotation
											End Site
											{
												OFFSET 0.861900 3.184998 0.405154
											}
										}
									}
								}
								JOINT RightHandPinky1
								{
									OFFSET -13.131393 -0.168503 -5.746925
									CHANNELS 3 Xrotation Yrotation Zrotation
									JOINT RightHandPinky2
									{
										OFFSET -2.849182 0.000000 0.000000
										CHANNELS 3 Xrotation Yrotation Zrotation
										JOINT RightHandPinky3
										{
											OFFSET -2.805038 0.000000 0.000000
											CHANNELS 3 Xrotation Yrotation Zrotation
											End Site
											{
												OFFSET 0.882500 2.642609 0.325652
											}
										}
									}
								}
							}
							JOINT Right_Sleeve
							{
								OFFSET -6.592125 -0.646545 0.805568
								CHANNELS 3 Xrotation Yrotation Zrotation
								End Site
								{
									OFFSET 0.000179 20.275787 -0.000000
								}
							}
						}
					}
				}
				JOINT Bind_Right_JacketString
				{
					OFFSET -3.534800 11.969597 7.200700
					CHANNELS 3 Xrotation Yrotation Zrotation
					JOINT Bind_Right_JacketString1
					{
						OFFSET -0.319900 -6.102600 2.794100
						CHANNELS 3 Xrotation Yrotation Zrotation
						End Site
						{
							OFFSET 0.000000 6.719452 0.000000
						}
					}
				}
				JOINT Bind_Left_JacketString
				{
					OFFSET 2.904800 11.969597 7.200700
					CHANNELS 3 Xrotation Yrotation Zrotation
					JOINT Bind_Left_JacketString1
					{
						OFFSET 0.364800 -5.904503 3.186800
						CHANNELS 3 Xrotation Yrotation Zrotation
						End Site
						{
							OFFSET 0.000000 6.719513 0.000000
						}
					}
				}
				JOINT HairE
				{
					OFFSET 5.915200 17.612701 -11.592200
					CHANNELS 3 Xrotation Yrotation Zrotation
					JOINT HairE1
					{
						OFFSET 0.289200 -7.171898 -1.284500
						CHANNELS 3 Xrotation Yrotation Zrotation
						End Site
						{
							OFFSET 0.000000 7.291756 0.000000
						}
					}
				}
				JOINT HairF
				{
					OFFSET -0.864800 17.612701 -11.592200
					CHANNELS 3 Xrotation Yrotation Zrotation
					JOINT HairF1
					{
						OFFSET 0.000000 -14.087097 -2.127501
						CHANNELS 3 Xrotation Yrotation Zrotation
						End Site
						{
							OFFSET 0.000000 14.246841 0.000000
						}
					}
				}
				JOINT HairG
				{
					OFFSET -8.087700 17.612701 -11.592200
					CHANNELS 3 Xrotation Yrotation Zrotation
					JOINT HairG1
					{
						OFFSET -0.293600 -6.081398 -0.910100
						CHANNELS 3 Xrotation Yrotation Zrotation
						End Site
						{
							OFFSET 0.000000 6.156120 0.000000
						}
					}
				}
			}
		}
	}
	JOINT Pouch
	{
		OFFSET 0.000000 4.394501 10.847300
		CHANNELS 3 Xrotation Yrotation Zrotation
		End Site
		{
			OFFSET 0.000000 21.880577 0.000000
		}
	}
	JOINT Bag
	{
		OFFSET -13.229000 4.813004 -0.593300
		CHANNELS 3 Xrotation Yrotation Zrotation
		End Site
		{
			OFFSET 0.000000 21.880577 0.000000
		}
	}
	JOINT OccupyGuyFacialAnim_Joint
	{
		OFFSET 1.000000 -70.206398 -1.655000
		CHANNELS 3 Xrotation Yrotation Zrotation
		End Site
		{
			OFFSET 0.000000 21.880577 0.000000
		}
	}
}
MOTION
Frames: 4
Frame Time: 0.016667
77.848991 54.606773 151.977127 -100.740318 -66.373716 -182.001387 0.000000 -0.000001 0.000000 -62.118685 15.178622 33.122869 96.371859 -4.397333 -9.821246 8.537464 -10.125896 -7.954012 0.000001 -0.000000 0.000000 -0.000004 0.000000 0.000000 -57.829982 12.959393 -49.302409 59.616220 2.324456 -2.794202 0.114937 1.676991 16.800163 -0.000001 0.000001 0.000000 -0.000000 -0.000001 -0.000001 11.573215 1.244939 1.260367 4.854289 11.245317 9.491949 -0.264528 4.650237 6.859580 17.054955 5.940626 9.977810 17.218028 33.848119 -18.256822 0.000002 -0.000003 0.000002 0.000002 -0.000003 0.000002 0.000002 -0.000003 0.000003 0.000002 -0.000003 0.000001 0.000001 -0.000001 -0.000001 0.000002 -0.000003 0.000001 0.000001 -0.000001 -0.000001 0.000002 -0.000003 0.000002 0.000002 -0.000003 0.000002 0.094780 -6.199205 -0.123054 9.665282 -8.508375 -0.913029 -0.000002 -16.045865 -0.000006 35.770452 4.134776 2.795901 -21.849329 -26.533936 3.214717 14.707545 16.467040 -15.962745 0.000002 0.000002 0.000001 -1.323879 -11.050865 -6.554821 0.019607 0.479407 -4.683528 0.000001 0.000000 0.000002 -0.648680 1.485330 -20.430349 0.000905 0.102833 -1.003612 -0.000000 0.000000 -0.000003 5.314373 12.518946 -31.340818 0.021991 0.507674 -4.960386 -0.000001 -0.000001 -0.000001 2.322010 20.828232 -37.538102 0.232409 1.635307 -16.176159 0.000000 0.000000 0.000001 0.000003 -0.000002 -0.000000 0.702724 0.170123 17.086857 -42.474341 9.627235 15.642588 0.000003 21.324535 -0.000004 54.171047 3.808789 -28.436352 -17.608769 2.987713 1.533014 -5.026848 -26.669268 -12.857315 0.000002 -0.000001 0.000001 0.237651 -2.716279 11.266509 0.242377 -1.484299 18.547367 -0.000002 -0.000002 0.000003 2.290404 -8.097832 24.945367 0.422945 -1.940994 24.583207 0.000003 0.000001 0.000001 5.299358 -10.955964 36.062849 0.774655 -2.574007 33.493755 0.000002 -0.000001 -0.000003 6.881488 -15.240338 43.779098 0.835653 -2.663779 34.829050 -0.000001 0.000001 0.000002 0.000001 0.000000 0.000003 -0.000000 0.000001 -0.000001 -0.000000 0.000001 -0.000002 -0.000000 0.000001 0.000000 -0.000000 0.000001 0.000000 -0.000000 0.000001 -0.000001 -0.000000 0.000001 -0.000001 -0.000000 0.000001 0.000000 -0.000000 0.000001 0.000000 -0.000000 0.000001 -0.000001 -0.000000 0.000001 -0.000001 0.000000 -0.000001 0.000000 0.000000 -0.000001 0.000000 0.000000 -0.000001 0.000000 
80.020592 51.922852 154.840515 -100.052716 -65.681073 -182.736247 0.000000 0.000001 0.000000 -62.363718 14.903982 31.930629 97.110981 -4.298151 -9.556553 8.152018 -10.003425 -7.358614 0.000002 -0.000000 0.000000 -0.000001 0.000000 0.000001 -58.237895 12.152032 -49.055655 56.187755 1.982517 -3.287863 3.695431 2.246698 18.824502 0.000000 -0.000000 -0.000000 0.000000 0.000001 -0.000003 11.668714 1.060766 0.788467 5.544253 11.383310 9.197804 -0.042805 4.627743 6.563429 15.374962 5.803015 9.269359 18.722394 32.861427 -18.303625 0.000003 0.000001 -0.000003 0.000003 0.000001 -0.000003 0.000003 0.000001 -0.000001 0.000003 0.000001 -0.000002 -0.000000 0.000001 -0.000000 0.000003 0.000001 -0.000002 -0.000000 0.000001 -0.000000 0.000003 0.000001 -0.000003 0.000003 0.000001 -0.000003 0.193427 -6.244322 -0.490223 8.939529 -6.671608 0.394176 -0.000013 -17.704892 0.000006 40.311776 8.263373 4.360177 -22.662674 -26.776635 3.864303 11.870368 19.263012 -11.470807 -0.000002 0.000001 -0.000001 0.130004 -11.645898 -0.445218 0.021089 0.497164 -4.857443 0.000002 -0.000001 0.000003 -0.475360 0.547755 -12.557681 0.000934 0.104589 -1.020718 0.000001 0.000003 -0.000001 3.960314 12.243252 -23.933510 0.023686 0.526787 -5.147695 -0.000000 0.000001 -0.000001 1.720363 20.343998 -29.864900 0.251791 1.700711 -16.842468 -0.000000 0.000002 0.000001 -0.000000 0.000001 -0.000002 0.757838 0.219490 18.065762 -42.841084 9.112756 16.864217 -0.000004 24.910764 0.000007 54.071374 4.622345 -27.029944 -17.424499 3.155068 1.313348 -4.888496 -26.946237 -12.345323 -0.000001 -0.000001 -0.000000 0.256219 -2.735465 12.032150 0.266325 -1.553829 19.450482 -0.000001 -0.000002 0.000005 2.288254 -8.009704 25.439347 0.480181 -2.061432 26.221885 -0.000001 0.000002 -0.000000 5.282054 -10.807312 36.655658 0.848272 -2.681835 35.099584 0.000002 0.000001 -0.000001 6.682616 -15.123050 43.637874 0.926464 -2.789640 36.737699 0.000001 0.000001 0.000001 -0.000001 0.000001 0.000001 0.000000 0.000000 -0.000002 0.000000 0.000000 -0.000000 0.000000 0.000000 -0.000000 0.000000 0.000000 -0.000000 0.000000 0.000000 -0.000002 0.000000 0.000000 -0.000000 0.000000 0.000000 -0.000000 0.000000 0.000000 -0.000000 0.000000 0.000000 -0.000002 0.000000 0.000000 -0.000000 0.000000 0.000001 0.000000 0.000000 0.000001 0.000000 0.000000 0.000001 0.000000 
82.135017 48.927170 157.835999 -99.012205 -66.156324 -183.306254 0.000000 -0.000003 0.000000 -62.210101 14.093861 29.449679 97.918897 -4.118099 -8.830522 7.437694 -8.686479 -6.865426 -0.000000 -0.000001 -0.000000 -0.000001 0.000000 -0.000001 -58.104720 10.486006 -49.765967 52.330201 1.663391 -3.853681 6.919883 3.170499 20.668564 -0.000000 -0.000001 -0.000000 -0.000001 -0.000002 -0.000002 11.768818 0.799470 0.731259 5.957483 11.339468 9.012860 0.073763 4.191040 6.295747 13.799727 5.635488 8.568027 19.962047 31.780696 -18.252601 0.000002 0.000000 -0.000002 0.000002 0.000000 -0.000002 0.000002 0.000000 -0.000001 0.000002 0.000000 -0.000001 0.000001 -0.000002 0.000002 0.000002 0.000000 -0.000001 0.000001 -0.000002 0.000002 0.000002 0.000000 -0.000002 0.000002 0.000000 -0.000002 0.268091 -6.237657 -0.973502 7.893507 -4.110882 1.992704 -0.000011 -21.678766 -0.000008 45.854198 11.612338 6.910733 -24.357757 -27.217496 5.367364 4.744766 23.727322 -0.421152 0.000000 -0.000002 0.000003 2.172459 -12.057195 7.954022 0.022638 0.515075 -5.032874 0.000002 -0.000000 0.000002 0.020042 -0.647348 -0.983337 0.000964 0.106397 -1.038268 0.000001 0.000001 -0.000004 1.956673 11.211957 -12.644219 0.025455 0.546064 -5.336622 0.000000 0.000001 0.000000 0.969397 19.372252 -18.258795 0.272117 1.766395 -17.513920 -0.000001 -0.000004 -0.000001 0.000001 0.000004 -0.000001 0.787627 0.240688 18.556507 -42.487919 7.719426 18.634638 0.000008 29.131286 0.000023 53.659578 5.152972 -25.209940 -17.240902 3.321311 1.091994 -4.748478 -27.220682 -11.832484 -0.000002 0.000000 0.000001 0.274453 -2.754160 12.796008 0.291291 -1.622803 20.351558 -0.000000 -0.000002 0.000005 2.284449 -7.922245 25.932002 0.540688 -2.179895 27.857056 0.000003 0.000002 -0.000000 5.261787 -10.660282 37.246811 0.924720 -2.787318 36.701981 -0.000000 0.000000 -0.000003 6.484883 -15.005219 43.497582 1.021207 -2.912103 38.642307 -0.000001 -0.000000 0.000000 -0.000000 0.000001 0.000000 -0.000001 -0.000000 0.000001 -0.000001 0.000000 0.000000 -0.000001 -0.000000 0.000000 -0.000001 -0.000000 0.000000 -0.000001 -0.000000 0.000001 -0.000001 0.000000 0.000000 -0.000001 -0.000000 0.000000 -0.000001 -0.000000 0.000000 -0.000001 -0.000000 0.000001 -0.000001 0.000000 0.000000 0.000000 -0.000003 0.000000 0.000000 -0.000003 0.000000 0.000000 -0.000003 0.000000 
84.431244 45.544327 160.956757 -98.942715 -65.939452 -185.526489 0.000000 0.000001 -0.000000 -62.718970 12.434515 27.567122 98.951703 -3.934852 -7.992752 7.872449 -8.286250 -6.406236 -0.000003 0.000000 0.000001 -0.000001 0.000000 -0.000000 -59.982721 10.084511 -49.036527 51.607376 2.347439 -5.527580 8.701333 3.794582 22.950552 0.000000 -0.000001 0.000001 -0.000001 -0.000001 0.000000 11.883838 0.526941 1.020803 6.189669 11.236926 8.879465 0.150938 3.491562 6.062968 12.506459 5.434278 7.875171 20.393700 30.654910 -18.008861 0.000002 0.000000 0.000002 0.000002 0.000000 0.000002 0.000002 0.000000 0.000003 0.000002 0.000000 -0.000000 -0.000000 -0.000002 -0.000001 0.000002 0.000000 -0.000000 -0.000000 -0.000002 -0.000001 0.000002 0.000000 0.000002 0.000002 0.000000 0.000002 0.299032 -6.173944 -1.669662 6.360269 2.416609 3.605608 0.000002 -28.398055 -0.000009 50.134490 13.536594 11.094389 -26.147665 -27.717075 6.953357 -3.260714 25.444463 12.144132 0.000002 0.000001 -0.000001 4.001857 -11.998681 15.702193 0.024259 0.533129 -5.209774 0.000003 0.000000 -0.000002 0.680433 -1.545813 10.206250 0.000995 0.108236 -1.056271 -0.000001 0.000001 -0.000001 0.308143 9.635000 -1.589517 0.027295 0.565509 -5.527093 0.000000 -0.000001 -0.000001 0.405218 18.245686 -6.886042 0.293343 1.832261 -18.189905 -0.000003 -0.000001 0.000006 0.000001 -0.000002 0.000002 1.035438 0.349712 19.024066 -41.972964 5.617783 20.313724 0.000004 34.549549 -0.000005 53.342200 5.393175 -23.168628 -17.059699 3.485452 0.870135 -4.607774 -27.490772 -11.322436 -0.000003 0.000000 0.000001 0.292220 -2.772310 13.552779 0.317107 -1.690730 21.244357 0.000002 0.000001 0.000002 2.278993 -7.836083 26.419952 0.603949 -2.295542 29.477327 -0.000000 -0.000001 -0.000003 5.238757 -10.515945 37.832237 1.003355 -2.889682 38.289812 0.000000 -0.000000 -0.000003 6.289591 -14.887702 43.359205 1.119048 -3.030285 40.529700 -0.000003 0.000000 0.000001 -0.000000 -0.000001 0.000002 -0.000000 -0.000000 0.000001 -0.000000 -0.000000 0.000001 -0.000000 -0.000000 0.000001 -0.000000 -0.000000 0.000001 -0.000000 -0.000000 0.000001 -0.000000 -0.000000 0.000001 -0.000000 -0.000000 0.000001 -0.000000 -0.000000 0.000001 -0.000000 -0.000000 0.000001 -0.000000 -0.000000 0.000001 0.000000 0.000001 -0.000000 0.000000 0.000001 -0.000000 0.000000 0.000001 -0.000000 
